<?xml version="1.0" standalone="no"?>
<!DOCTYPE svg PUBLIC "-//W3C//DTD SVG 20010904//EN"
 "http://www.w3.org/TR/2001/REC-SVG-20010904/DTD/svg10.dtd">
<svg version="1.0" xmlns="http://www.w3.org/2000/svg"
 width="221.000000pt" height="221.000000pt" viewBox="0 0 221.000000 221.000000"
 preserveAspectRatio="xMidYMid meet">
<metadata>
Created by potrace 1.11, written by Peter Selinger 2001-2013
</metadata>
<g transform="translate(0.000000,221.000000) scale(0.100000,-0.100000)"
fill="#000000" stroke="none">
<path d="M1 1933 c0 -246 2 -285 19 -341 11 -35 27 -73 35 -85 18 -25 19 -19
5 19 -36 94 -32 225 13 374 l22 75 6 -100 c7 -113 30 -185 85 -265 l35 -51
-110 -109 -111 -109 0 -93 c0 -130 15 -214 49 -269 27 -43 161 -400 161 -427
0 -7 -7 -24 -16 -38 -9 -13 -14 -27 -11 -30 2 -3 24 22 47 55 56 79 87 80 110
2 9 -34 -6 -56 -33 -45 -17 6 -77 -50 -77 -73 0 -7 -12 -19 -28 -27 -23 -13
-24 -15 -6 -16 11 0 38 15 60 33 21 18 51 40 66 50 30 19 29 20 43 -50 6 -29
4 -33 -14 -33 -11 0 -33 -11 -48 -26 l-28 -25 32 15 c48 24 70 20 88 -14 19
-37 19 -40 -4 -40 -11 0 -23 -5 -27 -12 -5 -8 0 -9 14 -6 31 9 64 -21 56 -49
-4 -13 -14 -23 -23 -23 -9 0 -29 -14 -45 -32 -25 -29 -26 -33 -12 -44 9 -6 25
-36 36 -65 18 -52 20 -54 59 -57 l40 -3 -10 36 c-6 20 -19 56 -29 81 -18 42
-18 45 -2 74 9 16 19 30 22 30 15 0 52 -138 49 -178 -3 -29 -1 -42 8 -42 18 0
17 88 -2 133 -23 56 -19 58 35 22 27 -18 86 -48 130 -66 78 -32 90 -41 70 -54
-5 -3 -10 -13 -10 -21 0 -8 5 -14 10 -14 6 0 10 6 10 13 1 35 16 38 74 12 56
-25 58 -25 346 -25 l289 0 21 30 c22 31 35 36 59 21 12 -8 13 -12 1 -25 -17
-22 -4 -33 20 -18 12 7 20 8 20 2 0 -5 7 -10 15 -10 17 0 20 16 5 25 -17 10
-11 21 11 21 12 0 28 -11 36 -23 15 -23 15 -23 279 -23 l264 0 0 58 c0 58 -1
59 -40 81 l-40 22 17 27 c10 15 23 31 30 35 7 4 13 17 13 27 0 11 5 20 10 20
6 0 10 7 10 15 0 8 -4 15 -10 15 -5 0 -10 7 -10 15 0 8 4 15 8 15 11 0 -4 158
-23 242 -20 90 -19 109 10 190 25 70 25 71 25 416 -1 220 -4 341 -10 332 -5
-8 -10 -22 -10 -31 0 -9 -7 -19 -15 -23 -8 -3 -15 0 -15 6 0 14 -50 68 -62 68
-5 0 -4 -9 2 -19 9 -17 5 -21 -25 -31 -28 -9 -34 -16 -30 -30 4 -13 0 -20 -13
-24 -27 -9 -52 3 -52 24 0 23 -24 32 -66 24 -38 -7 -41 -12 -17 -29 9 -7 13
-17 9 -23 -5 -8 -18 -5 -41 11 -19 12 -34 25 -32 28 1 4 24 23 50 44 47 35 50
36 69 19 16 -16 21 -16 28 -4 8 12 10 12 10 -3 0 -10 5 -15 11 -12 6 4 13 -2
16 -14 3 -11 9 -19 13 -16 13 8 -1 45 -16 45 -11 0 -11 5 -2 25 12 27 37 32
56 13 10 -10 15 -10 21 1 5 8 16 11 24 8 8 -3 19 -1 24 4 6 6 16 2 28 -11 44
-48 45 -40 45 315 l0 335 -1105 0 -1104 0 0 -277z m79 237 c0 -5 -15 -9 -32
-9 l-33 1 30 8 c17 4 31 8 33 9 1 0 2 -3 2 -9z m1004 -53 c22 -40 63 -89 108
-131 64 -59 76 -67 103 -62 112 20 169 18 265 -10 24 -7 24 -6 8 12 -23 26
-89 144 -80 144 4 -1 25 -19 47 -42 39 -39 150 -118 167 -118 15 0 9 18 -17
48 -37 44 -31 46 28 8 28 -18 71 -43 95 -55 32 -16 42 -27 42 -45 0 -22 -36
-150 -47 -169 -7 -12 -54 34 -51 50 3 16 -126 77 -211 99 -56 14 -177 19 -218
8 -18 -5 -21 -11 -17 -34 6 -28 -30 -104 -61 -130 -30 -25 -14 -30 26 -8 151
85 154 85 163 17 8 -58 34 -129 47 -129 5 0 9 14 9 32 0 30 1 31 15 12 10 -13
14 -15 15 -5 0 11 5 10 21 -5 17 -15 23 -16 40 -6 22 14 24 9 7 -21 -10 -20
-10 -21 5 -8 10 7 17 23 18 35 0 11 3 15 6 8 9 -22 -6 -61 -28 -73 -17 -9 -28
-7 -55 7 -34 19 -57 13 -36 -8 18 -18 15 -28 -7 -28 -11 0 -23 -4 -26 -10 -7
-11 75 -14 113 -4 32 9 65 86 66 155 1 51 3 56 19 48 25 -14 50 -56 44 -77 -2
-9 -8 -26 -13 -37 -7 -17 -2 -15 25 8 19 15 36 25 39 23 3 -3 -10 -29 -28 -58
-131 -206 -161 -271 -160 -347 2 -88 68 -187 169 -254 36 -24 74 -46 83 -50
12 -4 15 -12 10 -24 -20 -52 -67 -91 -134 -114 l-53 -18 73 0 c83 -1 118 12
156 61 14 18 28 29 32 25 4 -4 0 -15 -8 -24 -8 -10 -32 -49 -52 -87 -28 -52
-69 -101 -172 -204 -127 -127 -137 -135 -150 -117 -8 10 -14 26 -14 34 0 25
-32 145 -46 173 -11 21 -11 27 -1 31 9 3 7 10 -5 23 -13 13 -21 15 -29 7 -8
-8 -2 -41 25 -126 41 -133 44 -147 19 -125 -29 25 -53 29 -81 14 -15 -7 -41
-11 -58 -9 -25 4 -34 0 -48 -21 -9 -15 -21 -24 -27 -20 -17 10 -57 -5 -64 -25
-9 -30 -45 -72 -56 -65 -5 3 -5 13 2 26 9 16 7 24 -12 44 l-23 24 27 28 c30
31 35 63 12 82 -20 17 -19 25 6 60 20 26 21 32 9 60 -11 26 -10 33 4 49 18 20
21 56 6 66 -17 10 -11 44 10 57 11 7 20 22 19 33 0 13 -2 15 -6 6 -3 -8 -18
-25 -32 -37 l-26 -23 19 -35 19 -36 -24 -26 c-20 -21 -21 -28 -11 -44 17 -28
15 -47 -10 -80 l-22 -30 22 -23 c28 -30 28 -38 -3 -67 -28 -26 -32 -52 -10
-70 9 -7 12 -22 9 -40 -12 -58 33 -48 71 16 25 43 47 55 61 33 4 -7 19 1 40
22 27 26 36 30 47 20 11 -9 21 -8 45 6 35 20 56 13 114 -39 l33 -29 -30 6
c-86 18 -94 18 -157 -15 -84 -44 -230 -135 -269 -167 l-31 -27 6 105 c4 57 14
162 22 232 24 197 10 171 -32 -58 -7 -44 -14 -110 -14 -147 0 -38 -3 -68 -7
-68 -16 0 -84 27 -92 36 -17 17 -71 195 -87 282 -30 173 12 277 139 343 51 26
70 31 98 25 l36 -6 -3 -58 -4 -57 13 40 c18 61 24 67 50 53 27 -14 94 -11 156
8 81 24 81 25 81 -65 0 -44 5 -83 10 -86 6 -4 10 10 10 34 0 41 14 62 23 37 3
-8 3 -32 0 -53 -5 -32 -3 -36 8 -25 8 8 14 36 14 75 0 37 8 78 18 102 10 22
19 48 20 58 1 9 23 34 49 55 26 20 47 41 48 46 0 5 -6 4 -12 -1 -7 -5 -32 -24
-55 -41 -61 -48 -192 -109 -262 -123 -58 -12 -67 -12 -134 11 -295 99 -418
178 -459 292 -53 148 -87 263 -79 266 6 2 7 10 4 18 -4 10 3 14 23 14 l28 0
-33 34 c-28 29 -31 37 -22 54 24 45 110 75 97 34 -3 -9 8 -46 24 -80 27 -57
32 -63 52 -56 13 3 24 10 26 15 2 4 10 5 19 2 9 -4 22 2 30 13 13 17 14 16 11
-21 -3 -36 -6 -40 -33 -43 -20 -2 -34 -11 -41 -27 -19 -39 4 -46 61 -19 40 19
47 47 34 140 -11 80 -25 105 -79 140 -31 20 -55 27 -117 31 -77 5 -133 -6
-133 -26 0 -6 8 -8 18 -4 15 6 15 4 -3 -16 l-20 -23 -17 42 c-10 22 -25 78
-33 123 -9 45 -18 93 -21 105 -3 14 -1 21 5 18 5 -4 12 -19 16 -35 3 -15 29
-53 56 -85 l51 -56 67 0 c45 0 74 -5 89 -16 13 -9 26 -13 29 -10 3 3 -6 11
-20 17 -15 7 -24 16 -21 20 9 15 57 10 78 -8 20 -18 20 -18 3 7 -36 53 -75
140 -62 140 2 0 17 -22 33 -48 17 -27 44 -65 61 -84 33 -37 108 -94 116 -86 2
2 -16 31 -40 64 -57 75 -57 90 -2 36 23 -23 48 -42 54 -42 6 0 13 -5 15 -11 2
-6 35 -15 73 -20 39 -4 85 -11 104 -15 18 -4 32 -3 29 2 -70 144 -113 251
-154 388 -36 120 -32 126 20 33z m412 -378 c3 -6 1 -16 -5 -22 -9 -9 -14 -8
-21 3 -9 15 -4 30 10 30 5 0 12 -5 16 -11z m514 -89 c-11 -11 -20 -25 -20 -32
0 -6 -3 -8 -6 -5 -8 8 23 57 36 57 6 0 1 -9 -10 -20z m-1250 -44 c0 -16 -18
-31 -27 -22 -8 8 5 36 17 36 5 0 10 -6 10 -14z m-260 -251 c16 -19 29 -19 51
1 20 18 49 13 49 -8 0 -9 -3 -9 -10 2 -8 12 -14 11 -41 -9 l-32 -24 -17 23
c-10 13 -22 20 -29 16 -6 -4 -11 -2 -11 3 0 16 26 13 40 -4z m-65 -89 c8 -13
13 -30 10 -38 -5 -12 -13 -11 -50 6 -24 12 -44 23 -45 26 0 3 15 11 33 17 17
5 33 11 34 12 2 0 9 -10 18 -23z m1273 -122 l-30 -32 40 11 c49 13 58 7 95
-62 31 -56 47 -141 27 -141 -18 0 -71 38 -108 79 -69 76 -101 189 -71 255 12
25 12 25 44 -27 l32 -52 -29 -31z m-1658 116 c0 -5 -5 -10 -11 -10 -5 0 -7 5
-4 10 3 6 8 10 11 10 2 0 4 -4 4 -10z m451 -8 c-7 -14 -6 -18 7 -18 9 -1 24
-3 32 -5 10 -3 14 2 12 13 -3 18 31 34 48 23 5 -3 10 -15 10 -26 0 -10 5 -19
10 -19 6 0 10 12 10 27 0 38 12 21 36 -53 l21 -65 -21 -15 c-23 -16 -35 -17
-54 -5 -11 7 -11 12 -1 28 7 13 9 27 4 39 -8 18 -9 17 -12 -4 -4 -22 -17 -23
-70 -6 -13 3 -17 -8 -14 -33 3 -19 -19 -16 -56 7 -38 23 -38 23 -18 55 8 14
22 36 30 50 18 29 41 35 26 7z m-121 -28 c40 -16 49 -27 30 -39 -5 -3 -10 -1
-10 5 0 6 -5 8 -10 5 -9 -6 -80 31 -80 41 0 9 31 3 70 -12z m45 -81 c17 -20
20 -31 13 -40 -16 -19 -33 -16 -62 14 l-26 26 22 13 c13 6 24 12 26 13 2 1 14
-11 27 -26z m-170 -232 c41 -43 79 -90 86 -107 11 -28 16 -191 6 -201 -3 -2
-16 3 -30 11 -13 9 -31 14 -39 11 -12 -5 -25 21 -57 111 -46 130 -49 143 -23
122 17 -14 67 -38 80 -38 3 0 -14 21 -40 48 -53 54 -84 111 -92 167 l-6 40 21
-43 c11 -24 54 -79 94 -121z m571 -97 l33 -14 -19 -43 c-34 -77 -36 -157 -5
-303 7 -31 7 -31 -42 -38 -74 -10 -81 -17 -60 -62 25 -51 15 -52 -23 -4 -40
50 -47 82 -56 238 -7 118 -3 137 22 112 14 -14 74 -31 74 -21 0 4 -9 16 -21
27 -35 32 -80 134 -58 134 5 0 9 -4 9 -10 0 -18 61 -78 89 -88 38 -13 45 -5
22 27 -21 29 -71 127 -71 137 0 4 17 -12 37 -36 20 -23 51 -49 69 -56z m1103
-72 c6 -27 23 -65 36 -85 l25 -35 -26 -59 c-15 -32 -32 -74 -39 -93 -36 -97
-34 -94 -54 -76 -15 14 -29 16 -63 11 -38 -6 -46 -4 -65 19 -13 14 -33 26 -45
25 -22 0 -22 -1 -3 -9 11 -4 31 -20 45 -34 21 -23 29 -26 65 -20 31 4 44 2 54
-10 14 -17 18 -62 7 -73 -3 -4 -43 7 -89 24 -139 52 -140 52 -176 37 -54 -23
-57 -16 -13 22 23 20 57 57 74 82 18 26 68 85 113 132 46 50 90 107 104 138
14 28 27 52 31 52 3 0 12 -22 19 -48z m135 -229 c11 -49 25 -177 20 -182 -2
-2 -16 -6 -31 -7 -30 -3 -83 35 -83 59 0 20 70 157 80 157 5 0 11 -12 14 -27z
m-1764 -37 c0 -3 -4 -8 -10 -11 -5 -3 -10 -1 -10 4 0 6 5 11 10 11 6 0 10 -2
10 -4z m232 -133 c6 -7 8 -13 4 -13 -10 0 -46 64 -45 80 0 8 7 -1 16 -20 8
-19 20 -41 25 -47z m327 25 c33 -111 51 -138 112 -169 48 -24 59 -34 59 -54 0
-29 7 -31 32 -8 17 15 18 15 18 -10 0 -31 -9 -57 -21 -57 -5 0 -44 28 -87 63
-43 34 -99 76 -124 94 -33 23 -54 47 -72 86 -14 30 -26 58 -26 64 0 8 36 21
91 32 3 0 11 -18 18 -41z m610 -34 c24 -9 50 -31 67 -55 14 -21 30 -39 35 -39
4 0 16 16 25 35 16 34 50 63 61 52 7 -7 -37 -65 -54 -71 -7 -3 -13 -15 -13
-26 0 -16 -5 -21 -22 -18 -15 2 -22 9 -20 20 2 12 -9 24 -32 35 -40 19 -60 11
-30 -12 25 -19 17 -19 -37 0 -43 15 -89 50 -89 67 0 9 36 26 57 27 7 1 30 -6
52 -15z m524 -15 c11 -15 23 -20 48 -17 34 3 34 3 33 -40 0 -23 -3 -45 -6 -48
-3 -3 -23 7 -44 21 -20 14 -48 28 -61 31 -18 5 -22 11 -17 23 3 9 9 24 11 34
7 23 19 22 36 -4z m-288 1 c3 -6 -1 -7 -9 -4 -18 7 -21 14 -7 14 6 0 13 -4 16
-10z m73 -16 c22 -6 22 -7 5 -26 -10 -11 -31 -27 -47 -35 -34 -18 -136 -34
-136 -21 0 4 11 8 24 8 15 0 41 16 66 40 43 41 50 44 88 34z m-190 -125 c20 0
31 -3 24 -6 -6 -2 -10 -8 -7 -13 3 -4 -3 -6 -12 -4 -10 2 -25 0 -33 -5 -13 -9
-12 -12 5 -25 23 -18 40 -20 64 -7 10 6 23 6 32 0 11 -8 10 -13 -11 -29 -35
-28 -74 -25 -107 8 -15 15 -28 32 -28 37 -1 6 -6 20 -13 32 -10 18 -10 27 0
42 11 19 12 18 31 -5 13 -17 29 -24 55 -25z"/>
<path d="M1346 1901 c-4 -6 -1 -11 6 -11 123 -5 203 -4 185 3 -39 15 -183 21
-191 8z"/>
<path d="M1324 1189 c-19 -22 -19 -22 4 -10 12 6 22 16 22 21 0 15 -5 12 -26
-11z"/>
<path d="M1756 669 c-26 -17 -46 -33 -43 -36 8 -7 85 38 91 54 7 17 9 18 -48
-18z"/>
<path d="M1696 411 c-4 -5 -2 -12 3 -15 5 -4 12 -2 15 3 4 5 2 12 -3 15 -5 4
-12 2 -15 -3z"/>
<path d="M780 343 c0 -14 42 -77 59 -90 38 -29 39 -9 2 33 -23 26 -41 51 -41
55 0 5 -4 9 -10 9 -5 0 -10 -3 -10 -7z"/>
<path d="M102 340 c-15 -25 -15 -61 0 -95 14 -31 32 -34 21 -2 -4 12 -8 43 -7
70 1 26 1 47 0 47 -1 0 -7 -9 -14 -20z"/>
<path d="M210 289 c0 -5 5 -7 10 -4 6 3 10 8 10 11 0 2 -4 4 -10 4 -5 0 -10
-5 -10 -11z"/>
<path d="M270 220 c0 -5 4 -10 9 -10 6 0 13 5 16 10 3 6 -1 10 -9 10 -9 0 -16
-4 -16 -10z"/>
<path d="M139 168 c24 -60 83 -168 91 -168 6 0 10 2 10 6 0 12 -95 184 -102
184 -4 0 -3 -10 1 -22z"/>
</g>
</svg>
